<svg width="206" height="53" viewBox="0 0 206 53" fill="none" xmlns="http://www.w3.org/2000/svg">
<path d="M98.9948 36.9266C97.7525 37.265 96.1248 37.6033 94.1543 37.9417C92.1838 38.2378 90.1277 38.407 87.943 38.407C85.7584 38.407 83.9164 38.1109 82.4599 37.5187C81.0035 36.9266 79.8469 36.1229 78.9902 35.0654C78.1335 34.008 77.5338 32.739 77.1482 31.3009C76.8056 29.8204 76.5914 28.2131 76.5914 26.4788V13.4509L83.9592 12.182V25.5906C83.9592 27.917 84.2591 29.6089 84.9016 30.6664C85.5442 31.7239 86.7007 32.2314 88.4142 32.2314C88.9282 32.2314 89.4851 32.1891 90.0848 32.1468C90.6845 32.1045 91.1986 32.0622 91.6698 31.9776V10.8707L99.0376 9.60175V36.9266H98.9948Z" fill="#EC6443"/>
<path d="M149.07 12.182C148.728 13.4509 148.385 14.8045 147.957 16.2849C147.528 17.7654 147.1 19.2458 146.672 20.7686C146.243 22.2913 145.772 23.7295 145.301 25.1676C144.83 26.6057 144.401 27.8747 143.973 29.0591C143.502 27.8747 143.031 26.6057 142.517 25.1676C142.003 23.7295 141.488 22.2913 141.017 20.7686C140.503 19.2458 140.032 17.7654 139.604 16.2849C139.175 14.8045 138.79 13.4509 138.447 12.182H130.651C132.15 17.2155 133.692 21.7414 135.406 25.8021C137.076 29.8627 138.747 33.5004 140.418 36.7151C139.904 37.9417 139.304 38.9146 138.618 39.5914C137.89 40.2682 136.905 40.6488 135.577 40.6488C134.934 40.6488 134.292 40.6065 133.692 40.5219C133.093 40.4374 132.407 40.2259 131.679 39.9721L130.394 45.767C131.036 46.0207 131.807 46.2745 132.793 46.486C133.778 46.6975 134.806 46.7821 135.963 46.7821C137.333 46.7821 138.533 46.6129 139.604 46.3168C140.632 46.0208 141.574 45.5132 142.388 44.8364C143.202 44.1596 143.973 43.3136 144.658 42.2985C145.344 41.2833 146.029 40.0144 146.715 38.5762C148.642 34.5156 150.398 30.328 151.983 26.0136C153.611 21.6991 155.153 17.0886 156.61 12.1397H149.07V12.182ZM127.352 0L120.027 1.18436V12.7741C119.214 12.4358 118.4 12.1397 117.586 11.9282C116.772 11.7167 115.872 11.6321 114.844 11.6321C113.002 11.6321 111.375 11.9282 109.918 12.5626C108.504 13.1971 107.262 14.0854 106.277 15.2275C105.292 16.4118 104.521 17.8077 104.007 19.4996C103.493 21.1915 103.236 23.0527 103.236 25.1253C103.236 27.1556 103.535 29.0168 104.135 30.6664C104.735 32.316 105.634 33.7119 106.791 34.854C107.948 35.996 109.361 36.8843 111.032 37.5188C112.702 38.1532 114.63 38.4493 116.729 38.4493C117.629 38.4493 118.528 38.407 119.513 38.3224C120.499 38.2378 121.441 38.1532 122.383 38.0263C123.326 37.8994 124.225 37.7302 125.082 37.5611C125.939 37.3919 126.71 37.1804 127.352 37.0112V0ZM115.958 17.7654C116.729 17.7654 117.457 17.85 118.185 18.0615C118.914 18.2729 119.513 18.4844 119.985 18.7805V31.9777C119.642 32.0622 119.171 32.1045 118.614 32.1468C118.057 32.1891 117.457 32.2314 116.772 32.2314C114.759 32.2314 113.259 31.5547 112.231 30.2011C111.203 28.8476 110.689 27.0287 110.689 24.7869C110.732 20.0918 112.488 17.7654 115.958 17.7654ZM55.7301 27.3248C55.7301 28.9745 55.9014 30.4972 56.2013 31.8508C56.5011 33.2043 57.058 34.3887 57.8719 35.3192C58.643 36.2921 59.7139 37.0112 61.0418 37.5611C62.3697 38.1109 63.9975 38.3647 66.0108 38.3647C67.5958 38.3647 68.9237 38.2378 69.9946 37.984C71.0655 37.7302 72.0507 37.4342 72.9503 37.0535L71.9222 31.4278C71.2368 31.6816 70.4658 31.8931 69.6091 32.02C68.7523 32.1468 67.9385 32.2314 67.1674 32.2314C65.5396 32.2314 64.4259 31.7662 63.869 30.8779C63.3121 29.9896 63.0551 28.763 63.0551 27.2402V18.1883H71.8794V12.182H63.0551V4.61053L55.7301 5.79489V27.3248ZM36.4966 32.1468C35.1686 31.8508 33.8836 31.4701 32.6413 31.0048L31.399 36.8843C31.9988 37.1381 33.0697 37.4765 34.5689 37.8571C36.111 38.2378 37.9958 38.4493 40.309 38.4493C43.8216 38.4493 46.5631 37.8148 48.4479 36.5036C50.3755 35.1923 51.3179 33.2889 51.3179 30.751C51.3179 29.6935 51.1894 28.763 50.9324 27.917C50.6754 27.1133 50.247 26.352 49.6473 25.7175C49.0476 25.0407 48.1909 24.4485 47.1628 23.8563C46.0919 23.2642 44.764 22.7143 43.179 22.1221C42.408 21.826 41.7226 21.5722 41.2514 21.3184C40.7374 21.0646 40.3518 20.8532 40.052 20.6417C39.7521 20.4302 39.538 20.2187 39.4523 19.9649C39.3666 19.7534 39.3238 19.4573 39.3238 19.2035C39.3238 17.9346 40.4804 17.3001 42.7935 17.3001C44.0358 17.3001 45.1495 17.427 46.1776 17.6385C47.1628 17.85 48.1052 18.146 48.962 18.3998L50.247 12.7741C49.3903 12.4358 48.2337 12.1397 46.7773 11.8859C45.3209 11.5898 43.8216 11.4629 42.2366 11.4629C39.0668 11.4629 36.5822 12.182 34.7831 13.5355C32.984 14.9314 32.0844 16.8348 32.0844 19.2458C32.0844 20.4725 32.2558 21.5299 32.6413 22.4182C32.984 23.3065 33.498 24.0678 34.1834 24.7023C34.826 25.3368 35.6398 25.8867 36.5822 26.352C37.5246 26.8172 38.5527 27.2402 39.7093 27.6632C41.2086 28.2131 42.2795 28.7207 43.0077 29.1437C43.7359 29.5666 44.0786 30.0742 44.0786 30.6664C44.0786 31.4278 43.7788 31.9354 43.2219 32.1891C42.665 32.4429 41.7226 32.5698 40.3518 32.5698C39.1096 32.5698 37.8245 32.4429 36.4966 32.1468Z" fill="#EC6443"/>
<path d="M167.833 45.1748C167.576 45.344 167.062 45.5555 166.291 45.8516C165.52 46.1054 164.663 46.2746 163.635 46.2746C162.607 46.2746 161.622 46.1054 160.722 45.767C159.822 45.4286 159.009 44.921 158.323 44.2442C157.638 43.5674 157.124 42.7215 156.695 41.7063C156.31 40.6912 156.096 39.4645 156.096 38.0686C156.096 36.842 156.267 35.6999 156.653 34.6848C157.038 33.6696 157.552 32.7813 158.28 32.02C159.009 31.2586 159.865 30.6664 160.893 30.2434C161.921 29.8204 163.078 29.6089 164.406 29.6089C165.82 29.6089 167.062 29.6935 168.133 29.905C169.204 30.1165 170.103 30.2857 170.831 30.4549V45.5555C170.831 48.178 170.146 50.0391 168.775 51.2235C167.404 52.4078 165.348 53 162.564 53C161.493 53 160.465 52.9154 159.523 52.7462C158.58 52.577 157.723 52.3655 157.038 52.1117L157.595 49.4892C158.195 49.743 158.966 49.9545 159.865 50.1237C160.765 50.2929 161.664 50.4198 162.65 50.4198C164.492 50.4198 165.777 50.0814 166.591 49.3623C167.404 48.6433 167.79 47.5012 167.79 45.9362V45.1748H167.833ZM167.79 32.6121C167.49 32.5275 167.062 32.4429 166.548 32.3583C166.034 32.2738 165.348 32.2315 164.449 32.2315C162.778 32.2315 161.536 32.7813 160.636 33.8388C159.737 34.8963 159.308 36.3344 159.308 38.0686C159.308 39.0415 159.437 39.8875 159.694 40.5643C159.951 41.241 160.294 41.8332 160.722 42.2985C161.15 42.7638 161.664 43.1022 162.221 43.3137C162.778 43.5252 163.378 43.652 163.935 43.652C164.749 43.652 165.477 43.5252 166.162 43.3137C166.848 43.1022 167.362 42.8061 167.79 42.51V32.6121Z" fill="#0066B2"/>
<path d="M173.958 38.4493C173.958 36.9689 174.173 35.6576 174.601 34.5156C175.029 33.4158 175.629 32.4852 176.357 31.7239C177.085 31.0048 177.899 30.4126 178.885 30.0742C179.827 29.6935 180.812 29.5244 181.797 29.5244C184.111 29.5244 185.867 30.2434 187.109 31.6393C188.351 33.0774 188.951 35.2346 188.951 38.1532C188.951 38.2801 188.951 38.4493 188.951 38.6608C188.951 38.8723 188.951 39.0415 188.908 39.2107H177.171C177.3 40.9872 177.814 42.2985 178.713 43.2291C179.613 44.1596 181.026 44.5826 182.954 44.5826C184.025 44.5826 184.925 44.498 185.696 44.2865C186.424 44.1173 186.981 43.9058 187.366 43.7366L187.795 46.2746C187.409 46.486 186.766 46.6975 185.824 46.909C184.882 47.1205 183.811 47.2474 182.654 47.2474C181.155 47.2474 179.87 47.0359 178.799 46.5706C177.728 46.1054 176.828 45.5132 176.1 44.7095C175.415 43.9481 174.858 43.0176 174.515 41.9178C174.13 40.9026 173.958 39.7183 173.958 38.4493ZM185.738 36.7997C185.781 35.4461 185.396 34.3041 184.71 33.4158C183.982 32.5275 182.997 32.1046 181.755 32.1046C181.069 32.1046 180.427 32.2315 179.87 32.5275C179.313 32.7813 178.885 33.162 178.499 33.585C178.114 34.008 177.814 34.5156 177.642 35.0655C177.428 35.6153 177.3 36.2075 177.214 36.7997H185.738Z" fill="#0066B2"/>
<path d="M192.121 30.4126C192.806 30.2434 193.749 30.0742 194.905 29.8627C196.062 29.6512 197.433 29.5667 198.932 29.5667C200.303 29.5667 201.417 29.7358 202.316 30.1165C203.216 30.4972 203.944 31.0471 204.458 31.7239C205.015 32.4006 205.357 33.2466 205.614 34.1772C205.829 35.1501 205.957 36.1652 205.957 37.3496V46.8667H202.873V38.0263C202.873 36.9689 202.787 36.0806 202.659 35.3615C202.53 34.6425 202.273 34.008 201.931 33.585C201.588 33.1197 201.159 32.7813 200.603 32.6121C200.046 32.4006 199.36 32.3161 198.546 32.3161C198.204 32.3161 197.861 32.3161 197.518 32.3583C197.176 32.4006 196.833 32.4006 196.533 32.4429C196.233 32.4852 195.933 32.5275 195.676 32.5698C195.419 32.6121 195.248 32.6544 195.12 32.6544V46.9513H192.035V30.4126H192.121Z" fill="#0066B2"/>
<path d="M24.8451 9.68634L0 38.6185V19.0343C0 16.158 2.09898 13.7047 4.92618 13.1971L24.8451 9.68634Z" fill="#F8C1B1"/>
<path d="M0 38.6185L24.8451 9.68634V29.2705C24.8451 32.1468 22.7461 34.6001 19.9189 35.1077L0 38.6185Z" fill="#ED6B50"/>
</svg>
